<svg xmlns="http://www.w3.org/2000/svg" xmlns:xlink="http://www.w3.org/1999/xlink" version="1.1" x="0px" y="0px" viewBox="0 0 100 100" enable-background="new 0 0 100 100" xml:space="preserve"><g><path d="M50.125,89.18c-21.492,0-38.978-16.562-38.978-36.918s17.485-36.918,38.978-36.918c21.492,0,38.977,16.562,38.977,36.918   S71.617,89.18,50.125,89.18z M50.125,18.344c-19.838,0-35.978,15.215-35.978,33.918c0,18.702,16.14,33.918,35.978,33.918   c19.837,0,35.977-15.216,35.977-33.918C86.103,33.559,69.963,18.344,50.125,18.344z"/></g><g><path d="M17.247,14.891c5.282,0,9.572,4.204,9.732,9.448c-3.954,2.702-7.327,6.111-9.911,10.037   C11.768,34.279,7.5,29.96,7.5,24.638C7.5,19.255,11.864,14.891,17.247,14.891z"/></g><g><path d="M83.004,14.891c-5.282,0-9.572,4.204-9.732,9.448c3.954,2.702,7.327,6.111,9.911,10.037   c5.299-0.097,9.567-4.415,9.567-9.738C92.751,19.255,88.387,14.891,83.004,14.891z"/></g><g><circle fill="#000000" cx="49.783" cy="63.348" r="2.883"/></g><g><path fill="#000000" d="M35.436,36.168c-6.709,0-12.148,5.439-12.148,12.148s5.439,12.148,12.148,12.148   s12.148-5.439,12.148-12.148S42.146,36.168,35.436,36.168z M41.416,50.161c-0.19,0.343-0.504,0.574-0.855,0.668   c-0.157,0.132-0.342,0.234-0.555,0.287l-9.006,2.212c-0.111,0.027-0.222,0.041-0.331,0.041c-0.623,0-1.189-0.423-1.344-1.055   c-0.183-0.743,0.272-1.494,1.015-1.676l6.285-1.544l-6.192-3.424c-0.669-0.37-0.912-1.213-0.542-1.883   c0.37-0.67,1.213-0.913,1.883-0.542l9.102,5.033C41.544,48.648,41.787,49.491,41.416,50.161z"/></g><g><path fill="#000000" d="M52.666,48.317c0,6.709,5.439,12.148,12.148,12.148s12.148-5.439,12.148-12.148   s-5.439-12.148-12.148-12.148S52.666,41.607,52.666,48.317z M59.376,48.278l9.102-5.033c0.67-0.371,1.513-0.128,1.883,0.542   c0.37,0.67,0.128,1.513-0.542,1.883l-6.192,3.424l6.285,1.544c0.743,0.182,1.197,0.933,1.015,1.676   c-0.155,0.632-0.721,1.055-1.344,1.055c-0.109,0-0.22-0.013-0.331-0.041l-9.006-2.212c-0.213-0.052-0.398-0.155-0.555-0.287   c-0.352-0.094-0.666-0.325-0.855-0.668C58.464,49.491,58.707,48.648,59.376,48.278z"/></g></svg>