<svg xmlns="http://www.w3.org/2000/svg" xmlns:xlink="http://www.w3.org/1999/xlink" version="1.1" x="0px" y="0px" viewBox="0 0 100 100" enable-background="new 0 0 100 100" xml:space="preserve"><g><path fill="#000000" d="M49.536,88.929c-21.564,0-39.108-16.617-39.108-37.042s17.544-37.042,39.108-37.042c21.564,0,39.108,16.617,39.108,37.042   S71.101,88.929,49.536,88.929z M49.536,17.845c-19.91,0-36.108,15.271-36.108,34.042s16.198,34.042,36.108,34.042   s36.108-15.271,36.108-34.042S69.446,17.845,49.536,17.845z"/></g><g><path fill="#000000" d="M16.543,14.385c5.3,0,9.606,4.219,9.766,9.481c-3.968,2.711-7.353,6.133-9.946,10.072   c-5.318-0.097-9.601-4.431-9.601-9.772C6.762,18.764,11.141,14.385,16.543,14.385z"/></g><g><path fill="#000000" d="M82.529,14.385c-5.3,0-9.606,4.219-9.766,9.481c3.968,2.711,7.353,6.133,9.946,10.072c5.318-0.097,9.601-4.431,9.601-9.772   C92.31,18.764,87.931,14.385,82.529,14.385z"/></g><g><path fill="#000000" d="M34.934,35.446c-6.733,0-12.191,5.458-12.191,12.191c0,6.733,5.458,12.191,12.191,12.191   c6.733,0,12.191-5.458,12.191-12.191C47.124,40.904,41.666,35.446,34.934,35.446z M42.472,49.694c-0.281,0.203-0.605,0.3-0.927,0.3   c-0.494,0-0.98-0.229-1.29-0.66c-1.728-2.398-3.447-3.552-5.157-3.544c-2.811,0.077-4.993,3.435-5.015,3.468   c-0.472,0.738-1.454,0.956-2.192,0.486c-0.738-0.47-0.959-1.447-0.491-2.187c0.124-0.196,3.089-4.805,7.591-4.941   c2.82-0.091,5.455,1.551,7.841,4.862C43.344,48.188,43.183,49.181,42.472,49.694z"/></g><g><path fill="#000000" d="M64.139,35.446c-6.733,0-12.191,5.458-12.191,12.191c0,6.733,5.458,12.191,12.191,12.191   c6.733,0,12.191-5.458,12.191-12.191C76.329,40.904,70.871,35.446,64.139,35.446z M72.09,49.694c-0.281,0.203-0.605,0.3-0.927,0.3   c-0.494,0-0.98-0.229-1.29-0.66c-1.728-2.398-3.447-3.552-5.157-3.544c-2.811,0.077-4.993,3.435-5.015,3.468   c-0.472,0.738-1.454,0.956-2.192,0.486c-0.738-0.47-0.959-1.447-0.491-2.187c0.124-0.196,3.089-4.805,7.591-4.941   c2.82-0.091,5.455,1.551,7.841,4.862C72.962,48.188,72.801,49.181,72.09,49.694z"/></g><g><path fill="#000000" d="M40.731,62.1h16.897c1.41,0,2.555,1.143,2.551,2.554c-0.016,5.152-1.173,16.408-10.867,17.637   c0,0-10.855-0.341-10.831-17.952C38.483,63.101,39.493,62.1,40.731,62.1z"/></g><g><ellipse fill="#000000" cx="49.33" cy="56.935" rx="3.926" ry="2.893"/></g></svg>